<?xml version="1.0" standalone="no"?>
<!DOCTYPE svg PUBLIC "-//W3C//DTD SVG 20010904//EN"
 "http://www.w3.org/TR/2001/REC-SVG-20010904/DTD/svg10.dtd">
<svg version="1.0" xmlns="http://www.w3.org/2000/svg"
 width="349.000000pt" height="349.000000pt" viewBox="0 0 349.000000 349.000000"
 preserveAspectRatio="xMidYMid meet">
<metadata>
Created by potrace 1.14, written by Peter Selinger 2001-2017
</metadata>
<g transform="translate(0.000000,349.000000) scale(0.100000,-0.100000)"
fill="#000000" stroke="none">
<path d="M2093 2706 c-38 -20 -139 -201 -192 -343 -42 -114 -97 -226 -125
-252 l-24 -23 -116 70 c-153 93 -172 99 -230 74 -29 -13 -53 -34 -69 -59 -13
-21 -52 -73 -85 -115 -69 -87 -113 -110 -171 -90 -29 10 -31 9 -31 -11 0 -12
9 -33 19 -46 15 -19 29 -24 75 -26 32 -2 62 -7 67 -12 13 -13 -18 -53 -36 -47
-8 3 -25 -5 -37 -18 -29 -30 -47 -26 -73 15 -14 22 -29 33 -50 35 -17 2 -37
10 -45 17 -14 12 -20 12 -45 -1 -16 -8 -47 -16 -67 -17 -21 -1 -38 -4 -38 -8
0 -4 -9 -11 -20 -14 -11 -3 -20 -12 -20 -20 0 -7 -7 -15 -15 -19 -8 -3 -12
-12 -9 -21 4 -8 -1 -17 -10 -21 -9 -3 -16 -11 -16 -18 0 -7 -24 -12 -63 -14
-39 -2 -66 -8 -73 -17 -6 -8 -23 -15 -38 -15 -16 0 -26 -5 -26 -15 0 -8 -4
-15 -10 -15 -5 0 -10 7 -10 17 0 11 -12 4 -37 -23 -21 -21 -38 -41 -39 -44 -5
-32 -44 -58 -44 -29 0 5 -4 8 -9 4 -5 -3 -22 0 -37 7 -21 10 -28 10 -31 1 -3
-8 -13 -9 -36 -1 -18 5 -38 12 -46 14 -10 3 -11 7 -1 19 10 12 9 16 -4 21 -9
3 -16 12 -16 19 0 13 -21 25 -46 25 -8 0 -14 -6 -14 -14 0 -9 -12 -14 -37 -14
-35 0 -43 -5 -69 -49 -10 -15 -13 -16 -28 -4 -15 12 -16 -46 -16 -798 l0 -811
1745 0 1745 0 0 806 0 806 -22 19 c-13 10 -29 18 -35 19 -18 0 -16 10 5 27 15
12 13 13 -18 7 -37 -6 -33 9 5 20 11 3 -4 2 -34 -1 -47 -5 -53 -3 -48 11 4 10
1 16 -8 16 -35 0 -7 49 30 51 16 1 16 2 3 6 -9 2 -27 -1 -38 -7 -19 -10 -20
-9 -12 7 5 10 7 24 5 31 -6 17 -43 -14 -43 -35 0 -8 -4 -12 -9 -8 -6 3 -13 -1
-18 -9 -4 -7 -17 -16 -28 -19 -16 -3 -13 -6 13 -12 17 -4 32 -11 32 -15 0 -11
-82 -32 -91 -23 -4 4 -31 6 -60 4 -40 -2 -52 -7 -56 -22 -6 -23 -23 -25 -23
-4 0 8 -4 15 -10 15 -6 0 -10 40 -10 101 0 68 -3 98 -11 94 -6 -4 -9 -32 -7
-66 2 -45 -1 -62 -12 -69 -10 -7 -11 -10 -2 -10 7 0 12 -14 12 -35 0 -19 -5
-35 -10 -35 -6 0 -15 -11 -20 -25 -10 -27 -26 -33 -32 -13 -3 8 -13 5 -33 -10
-15 -12 -36 -22 -46 -22 -10 0 -21 -4 -24 -10 -10 -17 -27 -11 -23 8 2 9 -5
26 -15 37 -24 27 -45 70 -53 111 -3 19 -10 34 -14 34 -15 0 -40 -38 -44 -68
-2 -18 -9 -38 -15 -46 -6 -8 -14 -30 -16 -50 -8 -61 -47 -122 -64 -100 -3 5
-12 9 -18 10 -45 4 -45 3 -43 52 3 94 0 128 -10 112 -5 -8 -10 -47 -10 -87 l0
-72 -37 6 c-26 3 -50 17 -76 44 -21 21 -44 39 -52 39 -7 0 -16 7 -19 16 -4 11
-2 15 7 11 7 -3 13 3 13 14 0 10 -2 16 -4 14 -11 -11 -41 17 -35 32 4 9 -1 21
-11 29 -10 7 -15 17 -11 23 3 6 0 11 -7 11 -23 0 -52 26 -44 39 6 9 13 8 27
-5 22 -20 25 -8 5 19 -7 9 -21 17 -30 17 -19 0 -22 16 -3 23 6 3 2 6 -10 6
-13 1 -23 7 -23 16 0 26 -17 16 -34 -19 -9 -19 -16 -39 -16 -45 0 -6 -5 -11
-11 -11 -7 0 -9 -10 -7 -25 6 -29 0 -32 -17 -8 -11 15 -13 15 -19 -5 -4 -12
-2 -31 4 -42 14 -25 8 -35 -16 -26 -11 4 -13 10 -7 19 6 7 6 33 0 66 l-9 53
-36 -5 c-21 -3 -51 -8 -68 -12 -27 -6 -32 -4 -37 17 -12 44 -7 74 22 120 16
25 32 56 36 69 4 13 20 51 36 84 15 33 30 87 34 120 4 33 11 74 16 90 5 17 13
63 19 103 15 111 43 166 91 185 44 17 46 23 19 55 -29 35 -80 53 -107 38z
m-613 -747 c0 -5 6 -9 14 -9 10 0 17 -17 21 -55 8 -60 0 -100 -14 -76 -5 7
-14 11 -19 7 -7 -4 -12 12 -14 46 l-3 53 -8 -60 c-5 -33 -11 -67 -14 -75 -5
-13 -6 -13 -10 0 -14 46 -14 46 -34 21 -17 -20 -20 -21 -25 -6 -6 14 -15 16
-55 11 -42 -6 -48 -4 -54 14 -8 26 99 161 135 170 25 7 80 -21 80 -41z m645
-237 c-8 -8 -25 17 -25 38 0 9 6 6 16 -8 9 -13 13 -26 9 -30z m-763 -84 c-22
-23 -36 -21 -27 3 3 8 15 16 27 16 l21 2 -21 -21z m28 -18 c-8 -5 -17 -7 -19
-4 -3 3 1 9 9 14 8 5 17 7 19 4 3 -3 -1 -9 -9 -14z m1400 -10 c8 -5 11 -10 5
-10 -5 0 -17 5 -25 10 -8 5 -10 10 -5 10 6 0 17 -5 25 -10z m-1250 -80 c0 -5
-2 -10 -4 -10 -3 0 -8 5 -11 10 -3 6 -1 10 4 10 6 0 11 -4 11 -10z m248 -492
c-5 -13 -14 -14 -128 -10 -100 3 -69 22 36 22 72 0 95 -3 92 -12z"/>
</g>
</svg>
